<svg xmlns="http://www.w3.org/2000/svg" xmlns:xlink="http://www.w3.org/1999/xlink" width="394" height="74" color="#354052" viewBox="0 0 394 74"><rect width="394" height="74" x="0" y="0" fill="#fff"/><symbol id="icon-.5" fill="none" stroke="currentColor" stroke-linecap="round" stroke-linejoin="round" stroke-width=".5" class="icon tabler-icon tabler-icon-disabled" viewBox="0 0 24 24"><circle cx="11" cy="5" r="2"/><polyline points="11 7 11 15 15 15 19 20"/><line x1="11" x2="16" y1="11" y2="11"/><path d="M7 11.5a5 5 0 106 7.5"/></symbol><symbol id="icon-1" fill="none" stroke="currentColor" stroke-linecap="round" stroke-linejoin="round" stroke-width="1" class="icon tabler-icon tabler-icon-disabled" viewBox="0 0 24 24"><circle cx="11" cy="5" r="2"/><polyline points="11 7 11 15 15 15 19 20"/><line x1="11" x2="16" y1="11" y2="11"/><path d="M7 11.5a5 5 0 106 7.5"/></symbol><symbol id="icon-1.5" fill="none" stroke="currentColor" stroke-linecap="round" stroke-linejoin="round" stroke-width="1.5" class="icon tabler-icon tabler-icon-disabled" viewBox="0 0 24 24"><circle cx="11" cy="5" r="2"/><polyline points="11 7 11 15 15 15 19 20"/><line x1="11" x2="16" y1="11" y2="11"/><path d="M7 11.5a5 5 0 106 7.5"/></symbol><symbol id="icon-2" fill="none" stroke="currentColor" stroke-linecap="round" stroke-linejoin="round" stroke-width="2" class="icon tabler-icon tabler-icon-disabled" viewBox="0 0 24 24"><circle cx="11" cy="5" r="2"/><polyline points="11 7 11 15 15 15 19 20"/><line x1="11" x2="16" y1="11" y2="11"/><path d="M7 11.5a5 5 0 106 7.5"/></symbol><symbol id="icon-2.75" fill="none" stroke="currentColor" stroke-linecap="round" stroke-linejoin="round" stroke-width="2.75" class="icon tabler-icon tabler-icon-disabled" viewBox="0 0 24 24"><circle cx="11" cy="5" r="2"/><polyline points="11 7 11 15 15 15 19 20"/><line x1="11" x2="16" y1="11" y2="11"/><path d="M7 11.5a5 5 0 106 7.5"/></symbol><use width="64" height="64" x="5" y="5" xlink:href="#icon-.5"/><use width="64" height="64" x="85" y="5" xlink:href="#icon-1"/><use width="64" height="64" x="165" y="5" xlink:href="#icon-1.5"/><use width="64" height="64" x="245" y="5" xlink:href="#icon-2"/><use width="64" height="64" x="325" y="5" xlink:href="#icon-2.75"/></svg>