<svg xmlns="http://www.w3.org/2000/svg" width="24" height="24" fill="none" stroke="currentColor" stroke-linecap="round" stroke-linejoin="round" stroke-width="2" class="icon icon-tabler icon-tabler-battery-2" viewBox="0 0 24 24"><rect width="24" height="24" x="0" y="0" stroke="none"/><path d="M6 7h11a2 2 0 0 1 2 2v.5a.5 .5 0 0 0 .5 .5a.5 .5 0 0 1 .5 .5v3a.5 .5 0 0 1 -.5 .5a.5 .5 0 0 0 -.5 .5v.5a2 2 0 0 1 -2 2h-11a2 2 0 0 1 -2 -2v-6a2 2 0 0 1 2 -2"/><line x1="7" x2="7" y1="10" y2="14"/><line x1="10" x2="10" y1="10" y2="14"/></svg>