<svg xmlns="http://www.w3.org/2000/svg" width="24" height="24" fill="none" stroke="currentColor" stroke-linecap="round" stroke-linejoin="round" stroke-width="2" class="icon icon-tabler icon-tabler-battery-charging" viewBox="0 0 24 24"><rect width="24" height="24" x="0" y="0" stroke="none"/><path d="M16 7h1a2 2 0 0 1 2 2v.5a.5 .5 0 0 0 .5 .5a.5 .5 0 0 1 .5 .5v3a.5 .5 0 0 1 -.5 .5a.5 .5 0 0 0 -.5 .5v.5a2 2 0 0 1 -2 2h-2"/><path d="M8 7H6a2 2 0 0 0 -2 2v6a2 2 0 0 0 2 2h1"/><polyline points="12 8 10 12 13 12 11 16"/></svg>