<svg xmlns="http://www.w3.org/2000/svg" width="24" height="24" fill="none" stroke="currentColor" stroke-linecap="round" stroke-linejoin="round" stroke-width="2" class="icon icon-tabler icon-tabler-clipboard-list" viewBox="0 0 24 24"><rect width="24" height="24" x="0" y="0" stroke="none"/><path d="M9 5H7a2 2 0 0 0 -2 2v12a2 2 0 0 0 2 2h10a2 2 0 0 0 2 -2V7a2 2 0 0 0 -2 -2h-2"/><rect width="6" height="4" x="9" y="3" rx="2"/><line x1="9" x2="9.01" y1="12" y2="12"/><line x1="13" x2="15" y1="12" y2="12"/><line x1="9" x2="9.01" y1="16" y2="16"/><line x1="13" x2="15" y1="16" y2="16"/></svg>