<svg xmlns="http://www.w3.org/2000/svg" width="24" height="24" fill="none" stroke="currentColor" stroke-linecap="round" stroke-linejoin="round" stroke-width="2" class="icon icon-tabler icon-tabler-layers-difference" viewBox="0 0 24 24"><rect width="24" height="24" x="0" y="0" stroke="none"/><path d="M16 16v2a2 2 0 0 1 -2 2h-8a2 2 0 0 1 -2 -2v-8a2 2 0 0 1 2 -2h2v-2a2 2 0 0 1 2 -2h8a2 2 0 0 1 2 2v8a2 2 0 0 1 -2 2h-2"/><polyline stroke-dasharray="4 4" stroke-dashoffset="2" points="8 8 16 8 16 16 8 16 8 8"/></svg>