<svg xmlns="http://www.w3.org/2000/svg" width="24" height="24" fill="none" stroke="currentColor" stroke-linecap="round" stroke-linejoin="round" stroke-width="2" class="icon icon-tabler icon-tabler-lego" viewBox="0 0 24 24"><rect width="24" height="24" x="0" y="0" stroke="none"/><line x1="9.5" x2="9.51" y1="11" y2="11"/><line x1="14.5" x2="14.51" y1="11" y2="11"/><path d="M9.5 15a3.5 3.5 0 0 0 5 0"/><path d="M7 5h1v-2h8v2h1a3 3 0 0 1 3 3v9a3 3 0 0 1 -3 3v1h-10v-1a3 3 0 0 1 -3 -3v-9a3 3 0 0 1 3 -3"/></svg>